<?xml version="1.0" encoding="utf-8"?>
<!-- Generator: Adobe Illustrator 19.0.0, SVG Export Plug-In . SVG Version: 6.00 Build 0)  -->
<svg version="1.1" id="Layer_1" xmlns="http://www.w3.org/2000/svg" xmlns:xlink="http://www.w3.org/1999/xlink" x="0px" y="0px"
	 viewBox="0 0 141 79.5" style="enable-background:new 0 0 141 79.5;" xml:space="preserve">
<style type="text/css">
	.st0{fill:#FFF200;}
	.st1{fill:#8DC63F;}
	.st2{fill:#597836;}
	.st3{fill:#6D8E42;}
	.st4{fill:#94BC4F;}
	.st5{fill:#88B04A;}
	.st6{fill:#CFCECE;}
</style>
<polygon id="XMLID_428_" class="st0" points="75.4,28.3 75.2,28.4 83.3,34.7 93.3,42.2 "/>
<polygon id="XMLID_427_" class="st1" points="106.1,18.9 139.7,8.7 139.9,8.6 39.4,0.3 39.7,0.6 139.7,8.6 "/>
<polygon id="XMLID_426_" class="st0" points="75.4,28.3 93.3,42.2 94.8,43.4 139.7,8.7 106.1,18.9 "/>
<polygon id="XMLID_425_" class="st1" points="89.4,26.1 89,26 124.9,53.8 125.1,53.8 "/>
<polygon id="XMLID_424_" class="st2" points="105,19.3 138.6,9 38.6,0.9 74.3,28.7 "/>
<polygon id="XMLID_423_" class="st1" points="75.4,28.3 75.4,28.3 106.1,18.9 "/>
<polygon id="XMLID_422_" class="st0" points="81.1,32.5 88.4,38 81.1,32.3 "/>
<polygon id="XMLID_421_" class="st1" points="81.1,32.5 88.4,38 81.1,32.3 "/>
<path id="XMLID_420_" class="st0" d="M113.1,39.4"/>
<g id="XMLID_417_">
	<polygon id="XMLID_419_" class="st3" points="75.4,28.3 93.3,42.2 94.8,43.4 139.7,8.7 106.1,18.9 	"/>
	<polygon id="XMLID_418_" class="st3" points="75.3,28 78.4,48.4 95,43 	"/>
</g>
<g id="XMLID_414_">
	<polygon id="XMLID_416_" class="st4" points="133.2,72.1 140.1,8.4 139.7,8.5 94.8,43.2 	"/>
	<polygon id="XMLID_415_" class="st4" points="104.5,36 102.4,37.7 102.4,45.1 124.5,57.6 128.4,51.7 113.6,39.4 	"/>
</g>
<path id="XMLID_323_" class="st5" d="M0.7,61.1h2.1v-3.9h2.8v3.9h2.6v2.1H5.7v6.9c0,0.7,0.1,1.1,0.2,1.3C6,71.7,6.4,71.8,7,71.8
	c0.5,0,0.9,0,1.2-0.1v2.2c-0.8,0.1-1.4,0.1-1.8,0.1c-1.4,0-2.3-0.3-2.9-0.8c-0.4-0.4-0.7-1.3-0.7-2.4v-7.6H0.7V61.1z"/>
<path id="XMLID_326_" class="st5" d="M21.6,74h-2.8v-1.8h0c-0.8,1.4-2,2.1-3.7,2.1c-3.2,0-4.8-1.7-4.8-5.1v-8.2h2.8V69
	c0,2.1,0.8,3.1,2.5,3.1c2.1,0,3.2-1.2,3.2-3.5v-7.5h2.8V74z"/>
<path id="XMLID_363_" class="st5" d="M33.5,70.2c0.4-0.8,0.6-1.6,0.6-2.6c0-1.2-0.3-2.3-0.9-3.1c-0.7-1-1.6-1.4-2.8-1.4
	c-1.2,0-2.1,0.5-2.8,1.4c-0.6,0.8-0.9,1.9-0.9,3.1c0,1.2,0.3,2.3,0.9,3.1c0.7,1,1.6,1.4,2.8,1.4c0.8,0,1.5-0.2,2.1-0.7l1.8,1.8
	c-1.1,0.8-2.4,1.2-3.9,1.2c-2,0-3.6-0.6-4.8-1.9c-1.1-1.2-1.7-2.9-1.7-4.9c0-2,0.6-3.6,1.7-4.9c1.2-1.3,2.8-1.9,4.8-1.9
	s3.6,0.6,4.8,1.9c1.1,1.2,1.7,2.9,1.7,4.9c0,1.9-0.5,3.4-1.5,4.6L33.5,70.2z M30.5,57.5l1.7,2h2.4l-2.9-3.6h-2.4l-2.8,3.6h2.4
	L30.5,57.5z M31.6,54.4c0-1.2,0.1-1.5,0.5-2c0.4-0.5,1.1-0.9,2-0.9c0.7,0,1.2,0.2,1.5,0.4c0.6,0.5,0.8,1.1,0.8,1.9
	c0,0.6-0.3,1.3-0.9,1.8l-0.1,0.1c-0.5,0.5-0.5,0.5-0.5,1.1h-1.6c0-1,0.2-1.5,1-2.2c0.3-0.2,0.5-0.5,0.5-0.8c0-0.5-0.4-0.6-0.8-0.6
	c-0.2,0-0.5,0-0.7,0.2c-0.2,0.1-0.2,0.3-0.2,1H31.6z"/>
<path id="XMLID_367_" class="st5" d="M39.4,56.2h2.8v2.7h-2.8V56.2z M39.4,61.1h2.8V74h-2.8V61.1z"/>
<path id="XMLID_370_" class="st6" d="M44.2,56.2H47v6.6h0c0.8-1.4,2.1-2,3.9-2c1.4,0,2.5,0.4,3.3,1.1c0.8,0.8,1.2,1.9,1.2,3.3V74
	h-2.8v-8.1C52.6,64,51.8,63,50.1,63c-0.9,0-1.7,0.3-2.3,1c-0.6,0.6-0.8,1.4-0.8,2.4V74h-2.8V56.2z"/>
<path id="XMLID_372_" class="st6" d="M67.4,70.2c0.4-0.8,0.6-1.6,0.6-2.6c0-1.2-0.3-2.3-0.9-3.1c-0.7-1-1.6-1.4-2.8-1.4
	c-1.2,0-2.1,0.5-2.8,1.4c-0.6,0.8-0.9,1.9-0.9,3.1c0,1.2,0.3,2.3,0.9,3.1c0.7,1,1.6,1.4,2.8,1.4c0.8,0,1.5-0.2,2.1-0.7l1.8,1.8
	c-1.1,0.8-2.4,1.2-3.9,1.2c-2,0-3.6-0.6-4.8-1.9c-1.1-1.2-1.7-2.9-1.7-4.9c0-2,0.6-3.6,1.7-4.9c1.2-1.3,2.8-1.9,4.8-1.9
	s3.6,0.6,4.8,1.9c1.1,1.2,1.7,2.9,1.7,4.9c0,1.9-0.5,3.4-1.5,4.6L67.4,70.2z M63.1,78.2h2.6v-2.6h-2.6V78.2z"/>
<path id="XMLID_375_" class="st6" d="M81.9,65.4C81.7,63.8,80.7,63,79,63c-0.9,0-1.7,0.3-2.3,0.9c-0.8,0.8-1.2,2.1-1.2,3.8
	c0,1.2,0.2,2.2,0.8,3c0.6,0.9,1.5,1.4,2.6,1.4c1.8,0,2.8-1,3.1-2.9h2.8c-0.5,3.5-2.5,5.2-5.9,5.2c-2,0-3.5-0.6-4.6-1.9
	c-1.1-1.2-1.6-2.8-1.6-4.7c0-2,0.5-3.7,1.6-4.9c1.1-1.3,2.7-2,4.8-2c1.6,0,2.9,0.4,3.9,1.1c1.1,0.8,1.8,2,1.9,3.5H81.9z"/>
<path id="XMLID_378_" class="st5" d="M84.7,61.1h2.1v-3.9h2.8v3.9h2.6v2.1h-2.6v6.9c0,0.7,0.1,1.1,0.2,1.3c0.2,0.3,0.6,0.4,1.2,0.4
	c0.5,0,0.9,0,1.2-0.1v2.2c-0.8,0.1-1.4,0.1-1.8,0.1c-1.4,0-2.3-0.3-2.9-0.8c-0.4-0.4-0.7-1.3-0.7-2.4v-7.6h-2.1V61.1z"/>
<path id="XMLID_380_" class="st5" d="M94.2,61.1h2.7v2.5h0c0.2-0.7,0.6-1.4,1.4-1.9c0.8-0.6,1.6-0.9,2.4-0.9c0.2,0,0.5,0,1.1,0.1
	v2.7c-0.4-0.1-0.8-0.1-1.2-0.1c-1,0-1.8,0.4-2.5,1.1c-0.7,0.8-1,1.9-1,3.3V74h-2.8V61.1z"/>
<path id="XMLID_382_" class="st5" d="M111.5,70.2c0.4-0.8,0.6-1.6,0.6-2.6c0-1.2-0.3-2.3-0.9-3.1c-0.7-1-1.6-1.4-2.8-1.4
	c-1.2,0-2.1,0.5-2.8,1.4c-0.6,0.8-0.9,1.9-0.9,3.1c0,1.2,0.3,2.3,0.9,3.1c0.7,1,1.6,1.4,2.8,1.4c0.8,0,1.5-0.2,2.1-0.7l1.8,1.8
	c-1.1,0.8-2.4,1.2-3.9,1.2c-2,0-3.6-0.6-4.8-1.9c-1.1-1.2-1.7-2.9-1.7-4.9c0-2,0.6-3.6,1.7-4.9c1.2-1.3,2.8-1.9,4.8-1.9
	s3.6,0.6,4.8,1.9c1.1,1.2,1.7,2.9,1.7,4.9c0,1.9-0.5,3.4-1.5,4.6L111.5,70.2z M108.2,55.9l2.3,3.6h-2.1l-3.5-3.6H108.2z"/>
</svg>
